<svg width="16" height="15" viewBox="0 0 16 15" fill="none" xmlns="http://www.w3.org/2000/svg">
<path fill-rule="evenodd" clip-rule="evenodd" d="M9.62219 0.581101C10.1593 0.362404 10.7345 0.25 11.3151 0.25C11.8957 0.25 12.471 0.362404 13.008 0.581101C13.545 0.799763 14.0338 1.12057 14.446 1.52583C14.8586 1.93105 15.1865 2.41288 15.4105 2.94414C15.6345 3.47543 15.75 4.04536 15.75 4.62124C15.75 5.19713 15.6345 5.76706 15.4105 6.29835C15.1865 6.82956 14.8586 7.31134 14.4462 7.71653C14.4461 7.71657 14.4462 7.71649 14.4462 7.71653L7.99982 14.0515L1.55348 7.71653C0.72044 6.89788 0.25 5.78474 0.25 4.62124C0.25 3.45775 0.72044 2.34461 1.55348 1.52596C2.38608 0.707738 3.51259 0.250352 4.68453 0.250352C5.85646 0.250352 6.98297 0.707738 7.81557 1.52596L7.99982 1.70703L8.18395 1.52608C8.59626 1.1207 9.08509 0.799808 9.62219 0.581101ZM11.3151 1.75C10.928 1.75 10.5449 1.82498 10.1879 1.97034C9.83092 2.1157 9.50744 2.32841 9.23558 2.59569L7.99982 3.81011L6.76419 2.59582C6.21482 2.05594 5.46699 1.75035 4.68453 1.75035C3.90207 1.75035 3.15423 2.05594 2.60486 2.59582C2.05594 3.13526 1.75 3.86409 1.75 4.62124C1.75 5.3784 2.05594 6.10723 2.60486 6.64667L7.99982 11.9485L13.3948 6.64667C13.6667 6.37954 13.8819 6.06295 14.0283 5.71558C14.1748 5.36825 14.25 4.99642 14.25 4.62124C14.25 4.24606 14.1748 3.87424 14.0283 3.52691C13.8819 3.17954 13.6669 2.86307 13.3949 2.59594C13.123 2.32865 12.7993 2.1157 12.4423 1.97034C12.0854 1.82498 11.7023 1.75 11.3151 1.75Z" fill="#D0BC7A"/>
</svg>
