<svg width="14" height="14" viewBox="0 0 14 14" fill="none" xmlns="http://www.w3.org/2000/svg">
<path fill-rule="evenodd" clip-rule="evenodd" d="M0.49876 0.25H3.66374C4.84742 0.25 5.89831 1.00743 6.27262 2.13037L6.65792 3.28627C6.83823 3.8272 6.69214 4.4236 6.28223 4.81995C5.86644 5.222 5.84156 5.88036 6.22581 6.31265L7.66396 7.93057C8.06615 8.38303 8.78301 8.34994 9.14181 7.86234C9.50964 7.36248 10.1578 7.15676 10.7466 7.35302L11.8696 7.72737C12.9926 8.10168 13.75 9.15257 13.75 10.3363V13.5012L13.0963 13.5859L13 12.8421C13.0963 13.5859 13.0964 13.5859 13.0963 13.5859L13.0952 13.586L13.0931 13.5863L13.0859 13.5872L13.0601 13.5904C13.0378 13.5932 13.0057 13.597 12.9646 13.6017C12.8825 13.6112 12.7644 13.6242 12.6178 13.6385C12.3252 13.6671 11.9169 13.7015 11.4532 13.7244C10.5443 13.7694 9.3535 13.7746 8.40556 13.5762C7.33041 13.3512 6.40965 13.1007 5.55018 12.6915C4.68174 12.2779 3.90685 11.7175 3.09467 10.9053C2.28248 10.0931 1.72205 9.31825 1.30853 8.44981C0.899292 7.59034 0.648832 6.66958 0.4238 5.59443C0.225395 4.64649 0.230631 3.45569 0.275579 2.5468C0.29851 2.08311 0.332862 1.67482 0.361496 1.38214C0.375832 1.2356 0.388786 1.11753 0.398246 1.03539C0.402978 0.994301 0.40684 0.962166 0.409569 0.939912L0.412783 0.914046L0.413693 0.906881L0.413963 0.904777C0.413975 0.904681 0.414105 0.903674 1.15789 1L0.414105 0.903674L0.49876 0.25ZM1.83378 1.75C1.81226 1.99487 1.78994 2.29348 1.77375 2.62089C1.72988 3.50804 1.73511 4.53763 1.89199 5.28714C2.10831 6.32067 2.32971 7.10533 2.66284 7.80495C2.9917 8.4956 3.44414 9.13348 4.15533 9.84466C4.86651 10.5558 5.50439 11.0083 6.19504 11.3371C6.89466 11.6703 7.67932 11.8917 8.71285 12.108C9.46237 12.2649 10.492 12.2701 11.3791 12.2262C11.7065 12.2101 12.0051 12.1877 12.25 12.1662V10.3363C12.25 9.79821 11.9057 9.32054 11.3953 9.1504L10.3196 8.79183C9.38569 10.0092 7.56771 10.0801 6.54285 8.92711L5.1047 7.30919C4.18889 6.27891 4.24547 4.71129 5.23125 3.74968L4.8496 2.60472C4.67945 2.09429 4.20178 1.75 3.66374 1.75H1.83378ZM5.23489 3.76061C5.2349 3.76063 5.23489 3.7606 5.23489 3.76061Z" fill="#D0BC7A"/>
</svg>
